<svg xmlns="http://www.w3.org/2000/svg" height="800" width="1200" viewBox="-6.138873 -1.8015925 53.203566 10.809555"><defs><clipPath clipPathUnits="userSpaceOnUse" id="a"><path d="M54.533 243.707h116.01v20.427H54.533z"/></clipPath></defs><path d="M0 6.19157h7.1494l-.00106-.00176L2.3763 5.00024z" fill="#0a7abc"/><path d="M0 6.19157l2.37631-1.19133-1.47637-.3683z" fill="#a6d71c"/><path d="M2.37645 5.00024l4.77203 1.18957-1.60409-2.77777z" fill="#40c1f3"/><path d="M3.57473 0L1.09012 4.3039l4.26367-1.22238z" fill="#ed1c24"/><g clip-path="url(#a)" transform="matrix(.35278 0 0 -.35278 -19.23796 93.18085)"><path d="M167.6511 252.9302c.466.675 1.349 1.526 2.667 1.526l.225-1.414c-1.221 0-2.073-.497-2.812-1.687v-4.771h-1.574v7.728h1.301zm-4.489-1.494c-.096.514-.305 1.767-1.703 1.767-1.125 0-1.623-.996-1.751-1.767zm-3.535-1.222c.016-.819.322-2.442 2.17-2.442 1.43 0 2.506.884 2.731 1.093l.225-1.382c-.321-.273-1.285-1.06-3.134-1.06-2.121 0-3.566 1.429-3.566 4.033 0 2.699 1.622 4.017 3.422 4.017 2.298 0 3.293-1.881 3.293-3.873v-.386zm-1.749 4.098l-2.442-7.728h-1.286l-1.622 5.35-1.607-5.35h-1.286l-2.458 7.728h1.591l1.574-5.303 1.607 5.303h1.302l1.606-5.303 1.575 5.303zm-14.424-6.556c1.204 0 1.991 1.141 1.991 2.684 0 1.558-.771 2.683-1.991 2.683-1.351 0-1.993-1.285-1.993-2.683 0-1.494.723-2.684 1.993-2.684m0-1.333c-1.993 0-3.584 1.286-3.584 4.017 0 2.698 1.623 4.016 3.584 4.016 2.056 0 3.566-1.414 3.566-4.016 0-2.668-1.607-4.017-3.566-4.017m-9.333 5.768h1.769c1.654 0 2.377.867 2.377 2.008 0 1.174-.755 2.008-2.377 2.008h-1.769zm5.849 2.008c0-2.201-1.639-3.47-3.744-3.47h-2.105v-4.145h-1.654v11.086h3.759c2.475 0 3.744-1.606 3.744-3.471m-14.525-3.792c-1.767-.177-3.229-.546-3.229-1.622 0-.691.482-1.029 1.189-1.029 1.06 0 1.864.836 2.04 1.012zm.193-3.823l-.063.948c-.145-.226-.917-1.109-2.299-1.109-1.446 0-2.602.754-2.602 2.409 0 2.315 3.132 2.635 4.771 2.812v.241c0 .564-.224 1.238-1.51 1.238-1.156 0-2.346-.611-2.539-.707l-.208 1.382c.224.112 1.477.658 2.859.658 2.298 0 2.973-1.045 2.973-2.731v-5.141zm-6.142 7.728h-1.574v-7.728h1.574v1.172zm.193 2.329c0-.53-.45-.964-.98-.964-.547 0-.981.434-.981.964 0 .548.434.98.981.98.53 0 .98-.432.98-.98m-7.063-3.358c-.884 0-1.479-.691-1.479-1.526 0-.836.499-1.527 1.479-1.527.883 0 1.478.676 1.478 1.527 0 .851-.579 1.526-1.478 1.526m-.772-6.122c-.579-.257-1.237-.754-1.237-1.301 0-.562.658-.98 2.233-.98 1.174 0 2.17.37 2.17 1.077 0 .61-.852.77-1.559.9-.611.112-1.607.304-1.607.304m4.917 5.834l-1.398-.145c.065-.097.241-.45.241-1.093 0-1.189-.883-2.683-2.957-2.683-.32 0-.514.033-.577.048-.081-.033-.306-.209-.306-.386 0-.193.273-.241.546-.289.29-.08 1.174-.241 1.688-.322 1.477-.224 2.506-.803 2.506-2.008 0-1.542-1.622-2.41-3.647-2.41-2.845 0-3.744 1.029-3.744 2.04 0 1.141 1.237 1.785 1.542 1.944-.16.13-.417.371-.417.788 0 .53.514.883.707 1.013-.546.289-1.334 1.028-1.334 2.265 0 1.35 1.077 2.699 2.972 2.699 1.141 0 1.8-.481 1.977-.626l1.976.61zm-10.471-.065c.466.675 1.349 1.526 2.667 1.526l.225-1.414c-1.221 0-2.073-.497-2.811-1.687v-4.771h-1.575v7.728h1.301zm-6.276-5.174c1.206 0 1.993 1.141 1.993 2.684 0 1.558-.771 2.683-1.993 2.683-1.35 0-1.992-1.285-1.992-2.683 0-1.494.722-2.684 1.992-2.684m0-1.333c-1.992 0-3.583 1.286-3.583 4.017 0 2.698 1.622 4.016 3.583 4.016 2.056 0 3.567-1.414 3.567-4.016 0-2.668-1.607-4.017-3.567-4.017m-6.033 5.013c-.096.514-.306 1.767-1.704 1.767-1.124 0-1.622-.996-1.751-1.767zm-3.536-1.222c.017-.819.322-2.442 2.17-2.442 1.429 0 2.507.884 2.731 1.093l.226-1.382c-.322-.273-1.286-1.06-3.134-1.06-2.121 0-3.566 1.429-3.566 4.033 0 2.699 1.622 4.017 3.422 4.017 2.298 0 3.294-1.881 3.294-3.873v-.386zm-3.294 6.685l-.257-1.703c-.273.208-1.51 1.172-3.294 1.172-2.298 0-3.503-1.735-3.503-4.241 0-2.539 1.238-4.243 3.47-4.243 1.157 0 2.266.418 2.443.531v2.779h-2.507l-.24 1.511h4.386v-5.238c-.145-.129-1.527-1.044-3.937-1.044-2.972 0-5.301 1.879-5.301 5.704 0 3.583 2.12 5.704 5.237 5.704 2.201 0 3.165-.691 3.503-.932" fill="#5a5758"/></g></svg>